<svg xmlns="http://www.w3.org/2000/svg" xmlns:xlink="http://www.w3.org/1999/xlink" version="1.1" id="Layer_1" x="0px" y="0px" width="100%" viewBox="0 0 1695 439" enable-background="new 0 0 1695 439" xml:space="preserve">

<path fill="#1442BD" opacity="1.000000" stroke="none" d=" M54.047165,33.002228   C66.601929,35.680546 78.854782,37.896103 90.842606,41.102509   C106.631889,45.325691 122.619797,48.839691 138.535126,52.301773   C152.409103,55.319801 166.279770,58.671131 180.262955,61.369637   C190.942719,63.430637 201.656967,66.001678 212.262833,68.807991   C228.989578,73.233887 246.134140,76.057266 262.961334,80.138412   C269.628265,81.755363 276.514893,82.296616 283.063873,84.707420   C285.587677,85.636482 286.122681,86.514687 286.004852,88.684937   C285.959778,89.515472 285.999817,90.350586 285.999817,91.183617   C285.999969,160.991425 285.947968,230.799362 286.118683,300.606750   C286.129883,305.186249 285.025360,307.157013 280.422577,308.120483   C265.863861,311.167938 251.337769,314.424164 236.920410,318.078461   C223.453247,321.491882 209.863663,324.424896 196.339981,327.514648   C176.592728,332.026398 156.823685,336.510590 137.013489,340.753693   C125.010986,343.324493 113.088219,346.169769 101.135078,348.927063   C85.534813,352.525665 69.835350,355.698273 54.158745,358.958801   C50.859592,359.644958 47.813126,361.546875 44.000004,361.144989   C44.000004,358.895569 44.000004,356.740570 44.000004,354.585571   C44.000004,249.623947 43.999989,144.662323 44.000023,39.700695   C44.000027,29.817476 44.000183,29.817476 54.047165,33.002228  z"/>
<path fill="#1442BD" opacity="1.000000" stroke="none" d=" M503.506165,44.258072   C509.428009,44.165974 514.501587,41.953430 519.795837,40.869091   C532.737366,38.218475 545.612244,35.242500 558.756592,32.343994   C558.756592,141.448334 558.756592,250.502701 558.756592,359.721069   C545.247314,357.256104 532.125000,353.865540 518.872253,351.146667   C501.897919,347.664307 485.120483,343.346222 468.196930,339.665070   C451.770477,336.091980 435.251648,332.774658 418.991608,328.285156   C407.681183,325.162262 396.036163,323.128693 384.559570,320.516144   C371.021332,317.434265 357.480103,314.294586 343.909760,311.440765   C336.433289,309.868500 329.130585,306.960114 321.292786,306.848663   C318.468262,306.808533 316.904236,305.294617 316.910309,301.791626   C317.031799,231.656586 317.029388,161.521271 316.912689,91.386230   C316.907166,88.048691 318.188293,86.838913 321.054779,86.032234   C334.128174,82.353172 347.514832,80.069664 360.712769,76.962906   C377.261871,73.067276 393.935272,69.727585 410.391876,65.400024   C422.229126,62.287209 434.295959,60.025249 446.241364,57.363949   C459.318085,54.450603 472.416748,51.683949 485.439423,48.477123   C491.284058,47.037884 497.298828,46.138412 503.506165,44.258072  z"/>
<path fill="#0E2A76" opacity="1.000000" stroke="none" d=" M1217.988037,281.123474   C1222.086060,267.906311 1228.590576,257.043396 1241.716797,251.703308   C1256.701782,245.606949 1270.939453,247.678146 1284.013184,256.750671   C1287.601196,259.240601 1288.470215,258.447266 1288.988770,254.930450   C1289.447510,251.818970 1291.228638,250.898438 1294.179932,250.971954   C1299.839233,251.112915 1305.506470,251.107712 1311.166260,250.979706   C1314.511108,250.904037 1316.012817,252.160767 1316.005493,255.634201   C1315.942139,285.779388 1316.305542,315.931122 1315.749756,346.066284   C1315.581909,355.169159 1314.874878,364.418732 1311.204590,373.299591   C1304.495972,389.531677 1287.429077,401.634674 1269.869751,402.065552   C1255.272461,402.423798 1241.074829,401.208801 1227.563721,395.089661   C1225.066772,393.958832 1223.883423,392.722809 1223.972046,389.969818   C1224.116455,385.477631 1224.193481,380.967285 1223.948608,376.483704   C1223.755493,372.948090 1225.617798,372.362427 1228.207886,373.235107   C1237.201416,376.265350 1246.522217,377.804413 1255.872559,378.673096   C1264.735474,379.496460 1276.636841,377.911133 1281.362061,369.046722   C1284.847534,362.507874 1285.481079,355.430725 1284.830566,348.262726   C1284.525635,344.901703 1282.761719,347.171631 1281.525513,347.932098   C1267.286133,356.691498 1252.522461,357.841095 1237.595703,350.134857   C1225.983765,344.140015 1220.427734,333.291748 1217.368652,321.295685   C1214.004761,308.104095 1214.314453,294.737610 1217.988037,281.123474  z"/>
<path fill="#0E2A76" opacity="1.000000" stroke="none" d=" M977.000732,346.947266   C977.000427,327.295105 976.988708,308.133636 977.008484,288.972168   C977.013000,284.634125 976.374634,280.382019 975.150208,276.254547   C973.400696,270.356812 969.717468,267.623352 963.646729,266.970581   C952.602966,265.783142 942.801758,269.443909 933.233582,274.333801   C930.428101,275.767578 931.025757,278.141479 931.022461,280.359680   C930.987549,303.853241 930.881653,327.347961 931.096252,350.839600   C931.139282,355.544098 929.960693,357.603943 925.005188,357.065918   C921.711487,356.708282 918.329102,356.774017 915.020020,357.051025   C910.990845,357.388306 909.916992,355.689117 909.940308,351.866180   C910.074219,329.872986 909.957764,307.878326 910.051270,285.884705   C910.064209,282.837524 909.589355,279.914368 908.816162,277.055237   C907.141418,270.862518 902.789307,267.440460 896.310913,266.921112   C886.074829,266.100494 876.698792,268.792542 867.717529,273.576385   C864.789673,275.135895 865.004395,277.410339 865.003723,279.881836   C864.997742,303.375458 865.005676,326.869080 864.996216,350.362701   C864.993530,356.969360 864.973450,356.976227 858.493958,356.996613   C854.828369,357.008148 851.152039,356.817627 847.500061,357.039276   C843.932129,357.255798 842.948425,355.722137 842.957458,352.351379   C843.042786,320.526917 843.052856,288.701996 842.944824,256.877686   C842.932434,253.238815 843.999023,251.602127 847.774353,251.968933   C849.919922,252.177414 852.110107,252.115906 854.267334,251.976578   C858.781494,251.685059 862.311523,251.788086 862.375244,258.132874   C862.419983,262.591248 865.684265,260.865784 867.986633,259.403015   C878.141541,252.951294 889.254517,249.196381 901.239380,249.129272   C911.122192,249.073914 920.425415,251.409943 926.177063,260.717621   C927.441650,262.764069 928.475159,262.713806 930.448730,261.370270   C940.778748,254.338074 952.290100,250.070007 964.695190,249.191040   C984.247314,247.805618 997.252197,257.006714 997.834656,277.794891   C998.520386,302.269012 997.878357,326.778137 998.098450,351.269501   C998.140930,355.999481 996.521851,357.471466 992.076294,357.051575   C989.103638,356.770813 986.053223,356.730316 983.090576,357.059357   C978.265381,357.595245 976.266174,355.768768 976.977783,350.933105   C977.145691,349.791656 977.001343,348.604248 977.000732,346.947266  z"/>
<path fill="#0E2A76" opacity="1.000000" stroke="none" d=" M1645.999268,338.998505   C1645.993164,343.995117 1645.870850,348.496033 1646.021118,352.987885   C1646.123901,356.063141 1644.801758,357.084290 1641.863159,357.021393   C1636.036499,356.896576 1630.202515,356.889832 1624.376587,357.033905   C1621.647095,357.101410 1620.375732,356.268524 1619.569946,353.435394   C1617.723633,346.943756 1617.492798,347.001068 1611.693115,350.837036   C1598.894043,359.302399 1584.874023,362.143829 1569.927246,359.030762   C1558.731201,356.698822 1550.125244,345.723419 1550.057373,334.100800   C1549.904419,307.951965 1550.075562,281.801300 1549.938599,255.652267   C1549.918213,251.742371 1551.499023,250.857361 1555.001099,250.952744   C1561.991333,251.143173 1568.998291,251.207489 1575.983032,250.933456   C1580.029175,250.774704 1581.079468,252.361954 1581.055664,256.161957   C1580.924316,277.147552 1581.444214,298.147156 1580.844849,319.116394   C1580.427979,333.707031 1588.659546,338.290344 1601.982666,335.507721   C1602.790771,335.338928 1603.596558,335.153961 1604.394409,334.942474   C1614.468262,332.272430 1614.999756,331.581451 1615.000000,321.192230   C1615.000488,299.872711 1615.175659,278.550720 1614.876343,257.235382   C1614.802979,252.007278 1616.511719,250.620209 1621.421143,250.912933   C1627.727905,251.288971 1634.086548,251.247009 1640.399048,250.922882   C1644.769897,250.698471 1646.116821,252.129944 1646.087402,256.552704   C1645.905396,283.867096 1645.998047,311.183350 1645.999268,338.998505  z"/>
<path fill="#0E2A76" opacity="1.000000" stroke="none" d=" M1343.000366,299.000000   C1343.001709,284.501190 1343.173218,270.499176 1342.906128,256.505463   C1342.820068,251.995148 1344.365112,250.730316 1348.655640,250.925949   C1355.307861,251.229294 1361.992554,251.209091 1368.647095,250.933289   C1372.778320,250.762085 1374.109985,252.177155 1374.076416,256.328003   C1373.906616,277.324829 1374.255859,298.327911 1373.917114,319.320618   C1373.659424,335.282196 1381.881348,337.716339 1394.513184,335.681091   C1395.488770,335.523895 1396.439087,335.204559 1397.397217,334.946320   C1407.536011,332.213623 1408.000000,331.610016 1408.000488,321.183899   C1408.001343,299.685760 1408.096680,278.186829 1407.922729,256.690094   C1407.888672,252.467453 1408.901245,250.679855 1413.473633,250.913818   C1420.454834,251.271088 1427.469116,251.096130 1434.466309,250.974045   C1437.484009,250.921402 1439.043457,251.667236 1439.034424,255.121613   C1438.949341,287.618561 1438.957764,320.115906 1439.031982,352.612915   C1439.039185,355.778625 1438.041748,357.135925 1434.737427,357.034576   C1429.076660,356.860962 1423.395142,356.774841 1417.744629,357.072479   C1414.134399,357.262665 1412.770264,355.644287 1412.011475,352.465393   C1410.696777,346.956543 1410.513550,346.881195 1405.864258,350.079285   C1392.910034,358.990204 1378.651611,362.217377 1363.309814,359.101624   C1351.386353,356.680023 1343.142334,345.835724 1343.027710,333.497131   C1342.922485,322.165649 1343.002197,310.832458 1343.000366,299.000000  z"/>
<path fill="#0E2A76" opacity="1.000000" stroke="none" d=" M663.531860,266.974670   C653.483337,267.054504 645.164551,271.054077 636.961243,275.518372   C634.381958,276.921997 635.035522,279.157745 635.031372,281.188568   C634.984070,304.354584 634.852356,327.522400 635.113159,350.685577   C635.170349,355.763672 633.712402,357.671051 628.656311,357.059631   C625.863892,356.721924 622.969299,356.746948 620.170044,357.055267   C615.450134,357.575165 613.800903,355.954742 613.893188,351.011108   C614.188599,335.183685 614.001038,319.347229 614.001099,303.514282   C614.001343,272.348358 614.104736,241.181763 613.897156,210.017227   C613.864563,205.119141 615.382629,203.382156 620.138428,203.967239   C624.864136,204.548599 630.911194,201.930008 634.048889,205.228867   C636.943542,208.272308 634.910522,214.158371 634.956421,218.783081   C635.081970,231.448212 634.977783,244.115479 635.033875,256.781586   C635.040039,258.163452 634.304688,260.059845 635.947021,260.804230   C637.411560,261.467987 638.779907,260.161713 640.000916,259.375916   C651.050781,252.264069 663.184387,248.635635 676.260742,249.085342   C692.588196,249.646851 703.723389,257.788055 705.087830,276.093597   C706.985107,301.550232 705.386047,327.022369 706.028259,352.477112   C706.117493,356.016083 704.760315,357.206360 701.355225,357.037842   C697.365234,356.840393 693.341675,356.771271 689.362305,357.057892   C685.247437,357.354248 683.894043,355.881012 683.925598,351.704865   C684.094421,329.373352 684.035645,307.039795 683.976685,284.707153   C683.959290,278.096008 682.044922,272.308319 676.006592,268.608459   C672.222656,266.289978 668.077515,266.750549 663.531860,266.974670  z"/>
<path fill="#0E2A76" opacity="1.000000" stroke="none" d=" M1172.227905,254.660370   C1189.863892,264.373627 1195.938965,280.253906 1196.931763,298.733765   C1197.640381,311.922058 1196.775146,324.953766 1190.051270,336.888672   C1181.799072,351.536316 1169.321045,359.371582 1152.535522,359.943207   C1143.765991,360.241821 1135.037231,360.382965 1126.499023,357.093109   C1113.114380,351.935913 1104.254883,342.453491 1100.316528,329.103851   C1094.776611,310.325134 1094.501953,291.357452 1103.420654,273.322357   C1110.330444,259.349701 1121.999512,252.003540 1137.512329,249.837265   C1149.566528,248.153976 1160.893799,249.576584 1172.227905,254.660370  z"/>
<path fill="#0E2A76" opacity="1.000000" stroke="none" d=" M730.308594,316.570374   C736.660156,302.553223 748.155823,297.059082 762.260498,296.068970   C771.716492,295.405151 781.187317,296.014771 790.460144,298.145996   C793.288696,298.796051 793.916260,297.936462 794.025879,295.339172   C794.265808,289.658905 793.975830,283.991852 792.628174,278.518433   C790.657776,270.515594 786.351440,266.547729 774.016724,266.241364   C763.171326,265.971954 752.200256,267.070404 741.749817,270.889984   C735.277344,273.255646 735.020508,272.953918 735.000671,266.243103   C734.972900,256.866241 734.924255,256.707794 743.903076,253.950394   C759.130615,249.274048 774.577759,247.063431 790.413513,250.705215   C806.548645,254.415833 813.281677,264.505188 813.780823,279.831238   C814.566711,303.960022 813.923157,328.133514 814.060974,352.287079   C814.082825,356.118042 812.644897,357.391205 809.064575,357.019836   C807.581543,356.866058 806.068787,357.000153 804.569580,357.000000   C795.815674,356.999176 795.815674,356.998840 794.477234,347.674347   C789.880066,350.593994 785.561523,353.559174 780.770447,355.620239   C768.550171,360.877380 756.256165,362.309937 743.788086,356.381256   C731.267273,350.427582 726.613159,336.246979 728.465149,324.159180   C728.838562,321.721466 729.585999,319.341003 730.308594,316.570374  z"/>
<path fill="#0E2A76" opacity="1.000000" stroke="none" d=" M1467.000488,258.136688   C1467.087524,251.034485 1467.087524,251.025391 1473.487061,251.007080   C1478.315796,250.993271 1483.161255,251.253540 1487.967529,250.926163   C1491.530762,250.683456 1492.924316,252.159958 1493.732178,255.382660   C1494.523438,258.539215 1493.727051,263.462463 1496.430420,264.435150   C1499.348999,265.485199 1501.163330,260.694092 1503.766357,258.823364   C1512.506348,252.542084 1521.776855,248.486511 1532.933228,250.904755   C1535.242188,251.405228 1535.994995,252.348129 1535.983032,254.502914   C1535.942261,261.828766 1535.939453,269.155182 1535.985718,276.480988   C1536.000732,278.864166 1535.187500,279.287354 1532.702271,279.196594   C1522.482910,278.823181 1512.230103,278.013702 1502.248169,281.701752   C1498.962646,282.915680 1497.932129,284.461700 1497.948608,287.773071   C1498.054321,308.918793 1497.875122,330.066620 1498.094238,351.210602   C1498.142090,355.836548 1496.687622,357.334961 1492.144043,357.080444   C1486.168579,356.745728 1480.160278,357.005615 1474.166016,356.998169   C1467.020020,356.989258 1467.004517,356.983917 1467.003174,350.030212   C1466.996826,319.559540 1467.000244,289.088898 1467.000488,258.136688  z"/>
<path fill="#0E2A76" opacity="1.000000" stroke="none" d=" M1027.000488,337.999207   C1027.001221,311.021942 1027.115356,284.543610 1026.898926,258.067932   C1026.859619,253.247391 1028.256226,251.797409 1033.076050,251.891891   C1045.267090,252.130905 1045.268921,251.910065 1047.031982,264.097351   C1047.118042,264.693146 1047.321045,265.272034 1047.572510,266.264862   C1051.548828,263.755676 1053.897705,259.938751 1057.695190,257.818115   C1066.271851,253.028778 1075.128052,250.029953 1085.147461,251.947220   C1087.244141,252.348419 1087.989990,253.258453 1087.969482,255.216995   C1087.943237,257.714294 1087.997314,260.212341 1087.997192,262.710052   C1087.996826,271.506165 1087.985962,271.607422 1079.169067,270.932037   C1070.155640,270.241516 1061.800049,272.079590 1053.902344,276.486725   C1050.509399,278.380127 1048.901245,280.734924 1048.929932,284.803406   C1049.086792,306.950104 1048.877808,329.099731 1049.100342,351.245270   C1049.147339,355.923676 1047.609497,357.427094 1043.115234,357.064178   C1039.144165,356.743561 1035.123779,356.882629 1031.132080,357.018921   C1028.188599,357.119415 1026.883789,356.056335 1026.977905,352.985413   C1027.125732,348.160950 1027.006470,343.328247 1027.000488,337.999207  z"/>
<path fill="#fff" opacity="1.000000" stroke="none" d=" M1248.088013,316.647827   C1245.433228,305.396393 1245.506958,294.608063 1248.930420,283.954620   C1251.701416,275.332092 1257.948608,271.448364 1267.060059,271.796478   C1272.118896,271.989716 1276.897583,272.821716 1281.546265,274.791992   C1283.966797,275.817902 1285.075195,277.236725 1285.050293,280.031281   C1284.922485,294.357147 1284.947266,308.684998 1285.032837,323.011475   C1285.047485,325.477264 1284.308472,327.027130 1281.980835,328.041473   C1274.567871,331.271973 1267.314819,333.764618 1259.055298,330.279053   C1252.853027,327.661621 1249.875122,323.035583 1248.088013,316.647827  z"/>
<path fill="#fff" opacity="1.000000" stroke="none" d=" M1170.721069,280.414307   C1176.887817,295.639496 1176.617798,310.725952 1172.130127,325.875305   C1169.628540,334.319977 1159.780273,343.797394 1146.415283,343.127380   C1134.112915,342.510590 1125.733765,337.237183 1121.882690,325.948090   C1117.026855,311.713531 1117.108887,297.357391 1121.938110,283.215271   C1125.687622,272.235840 1134.101685,267.096771 1145.507324,266.803986   C1156.295166,266.527069 1165.486206,269.458435 1170.721069,280.414307  z"/>
<path fill="#fff" opacity="1.000000" stroke="none" d=" M762.823608,343.121155   C753.742981,342.382996 749.585754,336.607330 749.380432,327.917023   C749.176697,319.295441 756.078125,311.625793 764.410095,311.093414   C772.494629,310.576874 780.594482,310.667358 788.632568,312.088531   C792.341797,312.744354 794.857666,314.150696 794.006165,318.513306   C793.943604,318.833710 794.025452,319.179504 793.995972,319.509521   C793.572815,324.239929 796.140747,330.347015 792.864319,333.437164   C787.548218,338.450806 780.543396,341.986359 772.952209,342.794220   C769.790100,343.130676 766.524414,345.061920 762.823608,343.121155  z"/>
</svg>